<svg width="24" height="24" viewBox="0 0 24 24" fill="none" xmlns="http://www.w3.org/2000/svg">
<path fill-rule="evenodd" clip-rule="evenodd" d="M3.00004 5.5C3.55233 5.5 4.00004 5.94772 4.00004 6.5V19.5C4.00004 20.0523 4.44776 20.5 5.00004 20.5H19C19.5523 20.5 20 20.0523 20 19.5V6.5C20 5.94772 20.4478 5.5 21 5.5C21.5523 5.5 22 5.94772 22 6.5V19.5C22 21.1569 20.6569 22.5 19 22.5H5.00004C3.34319 22.5 2.00004 21.1569 2.00004 19.5V6.5C2.00004 5.94772 2.44776 5.5 3.00004 5.5Z" fill="#323232"/>
<path fill-rule="evenodd" clip-rule="evenodd" d="M8.50004 15.5C8.50004 14.3954 9.39548 13.5 10.5 13.5H13.5C14.6046 13.5 15.5 14.3954 15.5 15.5V22.5H8.50004V15.5ZM13.5 15.5H10.5V20.5H13.5V15.5Z" fill="#323232"/>
<path fill-rule="evenodd" clip-rule="evenodd" d="M2 4.5C2 2.84315 3.34315 1.5 5 1.5H10V7.5C10 9.70914 8.20914 11.5 6 11.5C3.79086 11.5 2 9.70914 2 7.5V4.5ZM5 3.5C4.44772 3.5 4 3.94772 4 4.5V7.5C4 8.60457 4.89543 9.5 6 9.5C7.10457 9.5 8 8.60457 8 7.5V3.5H5Z" fill="#323232"/>
<path fill-rule="evenodd" clip-rule="evenodd" d="M8 1.5H16V7.5C16 9.70914 14.2091 11.5 12 11.5C9.79086 11.5 8 9.70914 8 7.5V1.5ZM10 3.5V7.5C10 8.60457 10.8954 9.5 12 9.5C13.1046 9.5 14 8.60457 14 7.5V3.5H10Z" fill="#323232"/>
<path fill-rule="evenodd" clip-rule="evenodd" d="M14 1.5H19C20.6569 1.5 22 2.84315 22 4.5V7.5C22 9.70914 20.2091 11.5 18 11.5C15.7909 11.5 14 9.70914 14 7.5V1.5ZM16 3.5V7.5C16 8.60457 16.8954 9.5 18 9.5C19.1046 9.5 20 8.60457 20 7.5V4.5C20 3.94772 19.5523 3.5 19 3.5H16Z" fill="#323232"/>
</svg>
