<svg width="24" height="24" viewBox="0 0 24 24" fill="none" xmlns="http://www.w3.org/2000/svg">
<path fill-rule="evenodd" clip-rule="evenodd" d="M6.25 16.5C5.55964 16.5 5 17.0596 5 17.75C5 18.4404 5.55964 19 6.25 19C6.94036 19 7.5 18.4404 7.5 17.75C7.5 17.0596 6.94036 16.5 6.25 16.5ZM3 17.75C3 15.9551 4.45507 14.5 6.25 14.5C8.04493 14.5 9.5 15.9551 9.5 17.75C9.5 19.5449 8.04493 21 6.25 21C4.45507 21 3 19.5449 3 17.75Z" fill="#323232"/>
<path d="M1 5C1 4.19114 1.63922 3.5 2.4878 3.5H14.1951C15.0437 3.5 15.6829 4.19114 15.6829 5V5.5H18.3122C18.8429 5.5 19.3275 5.77828 19.5947 6.23482L19.6119 6.26409L22.8826 12.8362L22.909 12.9581C22.9107 12.9659 22.9136 12.9774 22.9271 13.0242L22.9289 13.0304C22.9402 13.07 22.9604 13.1401 22.9773 13.2181L23 13.3228V16.5C23 17.5789 22.1364 18.5 21.0244 18.5H18.372C18.4549 18.2654 18.5 18.013 18.5 17.75C18.5 17.2875 18.3604 16.8575 18.1211 16.5H21V13.5597L20.9887 13.5196L17.9929 7.5H13.6829V5.5H3V16.5H4.37889C4.13957 16.8575 4 17.2875 4 17.75C4 18.013 4.04512 18.2654 4.12803 18.5H2.4878C1.63922 18.5 1 17.8089 1 17V5Z" fill="#323232"/>
<path d="M8.37197 18.5H14.128C14.0451 18.2654 14 18.013 14 17.75C14 17.2875 14.1396 16.8575 14.3789 16.5H8.12111C8.36043 16.8575 8.5 17.2875 8.5 17.75C8.5 18.013 8.45488 18.2654 8.37197 18.5Z" fill="#323232"/>
<path fill-rule="evenodd" clip-rule="evenodd" d="M16.25 16.5C15.5596 16.5 15 17.0596 15 17.75C15 18.4404 15.5596 19 16.25 19C16.9404 19 17.5 18.4404 17.5 17.75C17.5 17.0596 16.9404 16.5 16.25 16.5ZM13 17.75C13 15.9551 14.4551 14.5 16.25 14.5C18.0449 14.5 19.5 15.9551 19.5 17.75C19.5 19.5449 18.0449 21 16.25 21C14.4551 21 13 19.5449 13 17.75Z" fill="#323232"/>
<path fill-rule="evenodd" clip-rule="evenodd" d="M13.7 10.18V7H15.7V10.18H21.5V12.18H15.7C14.5978 12.18 13.7 11.2823 13.7 10.18Z" fill="#323232"/>
</svg>
