<?xml version="1.0" encoding="utf-8"?>
<!-- Generator: Adobe Illustrator 28.1.0, SVG Export Plug-In . SVG Version: 6.00 Build 0)  -->
<svg version="1.1" id="Layer_1" xmlns="http://www.w3.org/2000/svg" xmlns:xlink="http://www.w3.org/1999/xlink" x="0px" y="0px"
	 width="60px" height="60px" viewBox="0 0 60 60" style="enable-background:new 0 0 60 60;" xml:space="preserve">
<style type="text/css">
	.st0{fill:#0165EC;}
	.st1{fill:#FFFFFF;}
</style>
<g>
	<path class="st0" d="M58,60H2c-1.1,0-2-0.9-2-2V2c0-1.1,0.9-2,2-2h56c1.1,0,2,0.9,2,2v56C60,59.1,59.1,60,58,60z"/>
</g>
<g>
	<g>
		<path class="st1" d="M11.3,26.9h1.9v0.8c0.3-0.6,1-1,1.9-1c1.6,0,2.5,1,2.5,2.7v4h-1.9v-3.7c0-0.8-0.4-1.2-1.2-1.2
			c-0.7,0-1.3,0.5-1.3,1.3v3.7h-1.9V26.9z"/>
		<path class="st1" d="M19.2,25.3c0-0.6,0.5-1.1,1.1-1.1c0.6,0,1.1,0.5,1.1,1.1c0,0.6-0.5,1.1-1.1,1.1
			C19.7,26.3,19.2,25.9,19.2,25.3z M19.4,26.9h1.9v6.6h-1.9V26.9z"/>
		<path class="st1" d="M22.8,30.2c0-2.1,1.5-3.4,3.5-3.4c2,0,3.4,1.5,3.4,3.3c0,0.1,0,0.4,0,0.6h-5c0,0.8,0.7,1.3,1.7,1.3
			c0.7,0,1.1-0.2,1.6-0.6l1.1,1.1c-0.9,0.9-1.8,1.2-2.8,1.2C24.2,33.6,22.8,32.3,22.8,30.2L22.8,30.2z M27.7,29.4
			c0-0.6-0.6-1.1-1.4-1.1c-0.8,0-1.5,0.5-1.6,1.1H27.7z"/>
		<path class="st1" d="M31,26.9h2v3.7c0,0.9,0.5,1.2,1.2,1.2c0.7,0,1.2-0.3,1.2-1.2v-3.7h2v3.9c0,1.9-1.5,2.8-3.2,2.8
			c-1.7,0-3.2-0.9-3.2-2.8V26.9z"/>
		<path class="st1" d="M38.4,26.9h1.8l1.2,3.7l1.1-3.7H44l1.1,3.7l1.2-3.7h1.8L46,33.5h-1.6l-1.2-3.7l-1.1,3.7h-1.6L38.4,26.9z"/>
	</g>
</g>
<g>
</g>
<g>
</g>
<g>
</g>
<g>
</g>
<g>
</g>
<g>
</g>
<g>
</g>
<g>
</g>
<g>
</g>
<g>
</g>
<g>
</g>
<g>
</g>
<g>
</g>
<g>
</g>
<g>
</g>
</svg>
