<svg width="24" height="24" viewBox="0 0 24 24" fill="none" xmlns="http://www.w3.org/2000/svg">
<path fill-rule="evenodd" clip-rule="evenodd" d="M10 7L15.1522 7C18.9341 7 22 10.134 22 14C22 17.866 18.9341 21 15.1522 21H7.97826C7.43798 21 7 20.5523 7 20C7 19.4477 7.43798 19 7.97826 19H15.1522C17.8536 19 20.0435 16.7614 20.0435 14C20.0435 11.2386 17.8536 9 15.1522 9H10V7Z" fill="#323232"/>
<path d="M10 11.191V4.80902C10 4.43733 9.60884 4.19558 9.27639 4.3618L2.89443 7.55279C2.5259 7.73705 2.5259 8.26295 2.89443 8.44721L9.27639 11.6382C9.60884 11.8044 10 11.5627 10 11.191Z" stroke="#323232" stroke-width="2"/>
</svg>
